<svg width="680" height="658" viewBox="0 0 680 658" fill="none" xmlns="http://www.w3.org/2000/svg">
<path opacity="0.5" d="M477.036 22.0713C398.328 45.3003 313.577 39.6343 236.586 10.4165C210.858 0.650321 182.991 -3.51443 155.141 3.6851C54.917 29.5937 56.4237 180.622 81.2609 260.334C106.098 340.045 -3.2471 404.938 0.0742438 511.64C3.37939 618.341 187.414 556.951 264.518 576.887C309.057 588.397 340.423 652.466 481.475 657.067C622.527 661.651 726.169 601.327 657.053 403.243C587.952 205.159 700.068 73.0169 585.214 15.3077C551.644 -1.56119 506.928 13.2576 477.036 22.0713Z" fill="url(#paint0_linear_39_3512)"/>
<defs>
<linearGradient id="paint0_linear_39_3512" x1="324.831" y1="640.779" x2="398.32" y2="-10.0842" gradientUnits="userSpaceOnUse">
<stop stop-color="white" stop-opacity="0"/>
<stop offset="0.9899" stop-color="#F7D8C9"/>
</linearGradient>
</defs>
</svg>
