<svg width="14" height="11" viewBox="0 0 14 11" fill="none" xmlns="http://www.w3.org/2000/svg">
<g id="GoGames" clip-path="url(#clip0_0_1)">

<g id="Pricing">
<g id="card1">
<g id="Rectangle 11" filter="url(#filter0_d_0_1)">
</g>
<path id="Vector_2" fill-rule="evenodd" clip-rule="evenodd" d="M13.3492 1.15932C13.4031 1.21309 13.4459 1.27697 13.475 1.3473C13.5042 1.41762 13.5192 1.49302 13.5192 1.56916C13.5192 1.6453 13.5042 1.72069 13.475 1.79102C13.4459 1.86134 13.4031 1.92522 13.3492 1.97899L5.24509 10.0831C5.19132 10.137 5.12744 10.1798 5.05711 10.2089C4.98679 10.2381 4.91139 10.2531 4.83525 10.2531C4.75911 10.2531 4.68372 10.2381 4.61339 10.2089C4.54307 10.1798 4.47919 10.137 4.42542 10.0831L0.373373 6.03103C0.264677 5.92234 0.203613 5.77492 0.203613 5.6212C0.203613 5.46748 0.264677 5.32006 0.373373 5.21136C0.482068 5.10267 0.62949 5.0416 0.783208 5.0416C0.936926 5.0416 1.08435 5.10267 1.19304 5.21136L4.83525 8.85473L12.5295 1.15932C12.5833 1.10541 12.6472 1.06264 12.7175 1.03346C12.7878 1.00428 12.8632 0.989258 12.9393 0.989258C13.0155 0.989258 13.0909 1.00428 13.1612 1.03346C13.2315 1.06264 13.2954 1.10541 13.3492 1.15932Z" fill="white"/>
</g>
</g>
</g>
<defs>
<filter id="filter0_d_0_1" x="-99" y="-429" width="460.182" height="666" filterUnits="userSpaceOnUse" color-interpolation-filters="sRGB">
<feFlood flood-opacity="0" result="BackgroundImageFix"/>
<feColorMatrix in="SourceAlpha" type="matrix" values="0 0 0 0 0 0 0 0 0 0 0 0 0 0 0 0 0 0 127 0" result="hardAlpha"/>
<feOffset dy="20"/>
<feGaussianBlur stdDeviation="25"/>
<feColorMatrix type="matrix" values="0 0 0 0 0.519358 0 0 0 0 0.582016 0 0 0 0 0.804167 0 0 0 0.08 0"/>
<feBlend mode="normal" in2="BackgroundImageFix" result="effect1_dropShadow_0_1"/>
<feBlend mode="normal" in="SourceGraphic" in2="effect1_dropShadow_0_1" result="shape"/>
</filter>
<linearGradient id="paint0_linear_0_1" x1="-317.784" y1="-208.921" x2="165.216" y2="-598.522" gradientUnits="userSpaceOnUse">
<stop stop-color="white" stop-opacity="0"/>
<stop offset="0.9899" stop-color="#FBEDE5"/>
</linearGradient>
<clipPath id="clip0_0_1">
<rect width="1440" height="3301" fill="white" transform="translate(-192 -2932)"/>
</clipPath>
</defs>
</svg>
