<svg width="208" height="279" viewBox="0 0 208 279" fill="none" xmlns="http://www.w3.org/2000/svg">
<path d="M163.343 278.707C166.163 279.193 172.715 277.735 174.271 276.666C184.595 269.472 204.817 257.261 207.947 244.331C208.472 242.114 199.392 237.156 198.653 234.745C193.637 230.176 191.615 228.892 188.97 222.204C181.193 202.429 219.128 181.352 188.795 160.625C166.571 145.44 143.258 147.559 157.53 110.246C171.821 72.9142 162.78 -5.79426 114.403 8.51637C86.6376 16.7216 100.19 56.3092 80.9989 76.6085C62.7606 95.8968 66.6883 117.538 86.6765 138.556C106.665 159.575 90.5653 166.108 76.9546 185.572C60.6024 208.943 99.1205 225.723 117.553 231.945C132.369 236.923 166.804 259.711 163.343 278.707Z" fill="url(#paint0_linear_39_3291)"/>
<path d="M190.429 261.48L190.837 261.033C122.337 197.257 99.0818 99.7272 128.675 0.174993L128.092 0C114.073 47.1901 111.895 95.7607 121.773 140.481C132.175 187.497 155.897 229.34 190.429 261.48Z" fill="#FCFDFE"/>
<path d="M69.0216 194.457C94.6096 193.932 133.594 205.599 155.916 220.473L156.246 219.968C133.847 205.035 94.7069 193.31 69.0022 193.855L69.0216 194.457Z" fill="#FCFDFE"/>
<path d="M177.11 248.803L177.635 248.492C170.46 236.534 169.604 221.406 175.107 203.557C179.132 190.452 186.423 176.219 196.748 161.208L196.242 160.858C185.879 175.908 178.568 190.199 174.524 203.363C168.982 221.406 169.857 236.689 177.11 248.803Z" fill="#FCFDFE"/>
<path d="M120.606 134.084L121.15 133.793C108.784 110.557 84.2072 97.8606 65.7745 91.2886L65.58 91.8524C83.9155 98.405 108.337 111.024 120.606 134.084Z" fill="#FCFDFE"/>
<path d="M115.745 74.0419L116.328 74.178C122.9 45.2845 146.777 25.3158 160.427 16.0022L160.077 15.4966C146.369 24.8686 122.375 44.9346 115.745 74.0419Z" fill="#FCFDFE"/>
<path d="M177.499 264.494C180.201 263.6 185.315 259.244 186.171 257.553C191.907 246.353 204.02 226.073 200.695 213.182C200.131 210.985 189.768 210.849 187.979 209.079C181.388 207.407 179.015 207.232 173.532 202.546C157.374 188.76 180.96 152.323 144.444 148.259C117.69 145.284 98.1098 158.136 93.1711 118.471C88.2323 78.8058 43.2782 13.5718 7.28778 48.9401C-13.3615 69.2394 17.2041 97.8024 9.79605 124.732C2.7574 150.32 16.3875 167.586 43.9005 176.744C71.4134 185.902 60.2721 199.241 57.4139 222.826C53.9723 251.136 95.8349 247.85 115.045 244.7C130.523 242.153 171.627 246.1 177.499 264.494Z" fill="url(#paint1_linear_39_3291)"/>
<path d="M193.306 236.553L193.462 235.97C103.009 211.86 36.6672 136.69 15.9984 34.9211L15.3957 35.0378C25.1954 83.2779 46.0974 127.182 75.8464 162.025C107.131 198.618 147.73 224.401 193.306 236.553Z" fill="#FCFDFE"/>
<path d="M54.6527 234.434C76.9937 221.932 116.892 213.921 143.589 216.565L143.647 215.962C116.853 213.299 76.7992 221.348 54.3611 233.909L54.6527 234.434Z" fill="#FCFDFE"/>
<path d="M175.593 231.615L175.904 231.09C163.966 223.915 156.091 210.965 152.552 192.61C149.947 179.155 149.675 163.153 151.755 145.07L151.152 144.992C149.072 163.153 149.344 179.194 151.95 192.727C155.547 211.257 163.499 224.343 175.593 231.615Z" fill="#FCFDFE"/>
<path d="M71.8216 156.892L72.1521 156.386C50.3362 141.687 22.6676 142.017 3.30161 144.895L3.39883 145.498C22.6482 142.64 50.1612 142.309 71.8216 156.892Z" fill="#FCFDFE"/>
<path d="M39.3116 106.183L39.8949 106.027C32.1174 77.4253 43.8225 48.5901 51.4834 33.9489L50.939 33.6573C43.2392 48.3957 31.4758 77.3864 39.3116 106.183Z" fill="#FCFDFE"/>
<defs>
<linearGradient id="paint0_linear_39_3291" x1="162.448" y1="19.8961" x2="84.9206" y2="515.516" gradientUnits="userSpaceOnUse">
<stop offset="0.00359712" stop-color="#C37A87"/>
<stop offset="1" stop-color="#9571F6"/>
</linearGradient>
<linearGradient id="paint1_linear_39_3291" x1="113.873" y1="57.4937" x2="54.8178" y2="435.025" gradientUnits="userSpaceOnUse">
<stop stop-color="#FF9085"/>
<stop offset="1" stop-color="#FB6FBB"/>
</linearGradient>
</defs>
</svg>
